<?xml version="1.0"?><svg width="640" height="480" xmlns="http://www.w3.org/2000/svg">
 <title>fern</title>

 <metadata id="metadata8159">image/svg+xml</metadata>
 <g>
  <title>Layer 1</title>
  <path id="path3416-4" d="m465.592499,444.465973c-42.296234,13.137878 -87.032257,40.028046 -130.43866,18.407928c-10.53537,3.392609 -46.26712,-11.268372 -21.499268,-21.774048c16.032288,-8.329102 54.404358,-3.793457 57.24176,-8.614105c-18.07663,-6.497528 -49.636444,2.035095 -59.751251,-3.782379c47.41272,-37.064667 111.825867,-30.061707 154.447418,15.762604zm12.148956,-103.946289c-25.164948,27.610168 -54.013702,63.164795 -89.5849,54.564178c-15.491364,-5.002045 -46.697693,10.880341 -53.028595,-4.339966c22.067932,-18.582794 48.754272,-21.776642 73.071106,-32.727722c-20.799286,-9.662811 -41.358154,7.834381 -62.065826,7.736938c13.839539,-19.859375 46.990662,-31.900604 71.360596,-33.884644c20.258148,-1.791809 40.749756,1.19104 60.247253,8.651062m10.492126,-81.429169c-25.063812,23.997162 -46.653137,63.958221 -80.771729,62.886383c-13.011749,-5.653442 -41.251221,20.815033 -44.415558,1.584473c20.386627,-18.599365 44.119385,-29.419922 67.898346,-37.737976c-24.651428,2.579956 -48.878357,11.459869 -71.139313,25.63327c32.815613,-43.955322 82.655731,-63.117004 128.428253,-52.365997m-133.62735,-185.501823c23.779205,110.119011 6.21405,232.684441 -40.618774,327.988853c-29.460297,51.421692 -71.197769,87.951935 -114.867142,115.341766c1.791153,-29.687164 28.061218,-31.865265 43.738312,-43.590027c16.68074,-17.791199 33.327682,-36.66864 47.537033,-58.343719c46.275146,-72.735901 69.142487,-168.645737 70.419739,-262.842239c-0.072266,-26.970116 -2.361816,-53.953598 -7.084686,-80.20311l0.507935,0.279137l0.367584,1.369339zm44.969208,475.282158c-43.672333,-4.949463 -90.627441,0.482971 -130.08548,-29.456177c-22.959991,10.786743 -23.394424,-41.974823 -0.110474,-25.306946c26.299408,-1.918457 52.439392,6.329865 76.787994,18.935974c-26.15686,-23.598145 -59.094666,-28.213959 -89.978943,-26.073212c44.743896,-25.95697 105.58429,-13.485504 133.365448,43.266144c3.506165,6.052612 6.809753,12.305054 10.021454,18.634033l0,0.000183zm-180.874878,-371.761871c45.801636,1.364059 94.88324,40.94072 103.314178,103.678436c9.942871,12.70282 -6.252472,50.168732 -9.346802,17.335052c-10.28595,-28.762878 -24.872986,-56.05043 -45.588623,-73.164261c22.321838,37.682663 44.873474,82.099747 41.424011,132.248856c-7.498474,-47.087097 -37.842896,-77.466003 -60.828995,-111.399323c-12.403839,-20.604446 -22.523438,-43.749466 -28.974091,-68.698807m2.333527,72.730392c40.623398,24.320862 74.908676,81.764252 66.956802,143.122833c-17.43689,-12.544861 -7.309204,-67.567017 -28.113129,-64.894318c7.661438,25.616211 12.420654,53.144135 9.588989,80.914703c-0.876404,13.348907 -8.99704,48.017487 -9.050201,17.571014c-7.79393,-60.996857 -41.951096,-112.886505 -39.383118,-176.714233m-36.44223,49.434631c32.805405,26.314484 65.105576,70.456024 61.718689,124.952332c6.233597,18.739014 -22.788803,51.212494 -15.674377,15.352997c2.864868,-26.725189 -8.73764,-71.809937 -16.219498,-81.906738c11.762558,35.605988 10.114227,75.965302 4.323517,113.210358c1.066589,-57.960541 -42.806396,-101.266602 -34.888306,-160.511169l0.294708,-5.557922l0.449066,-5.539856m320.354294,-100.717575c-31.611023,23.972656 -62.123901,54.830872 -99.245239,61.566544c-8.132599,11.115906 -38.545807,10.257233 -15.544403,-5.838654c11.147186,-13.271408 46.665192,-28.730164 44.834839,-35.724457c-19.89682,6.32901 -38.069794,19.296799 -57.587097,27.158081c29.447998,-47.216293 83.677673,-79.462341 127.541901,-47.161697l0,0.000183zm-23.02713,-85.331932c-27.055573,47.191917 -66.498047,77.489235 -104.171539,107.702507c13.942657,-32.91127 37.92276,-54.908493 60.163177,-77.230835c-19.076569,-0.522385 -38.164398,51.234634 -50.879303,32.785461c16.157318,-46.649414 58.603455,-64.920929 94.887665,-63.257133l0,0zm-7.231232,-89.337437c-3.083435,43.652882 -27.158966,80.806652 -56.991608,97.991627c-13.337097,9.643456 -30.359253,40.111916 -37.698883,42.779884c8.97049,-32.933273 28.024048,-58.221687 44.572144,-84.679924c-20.539673,11.922089 -29.078979,43.75499 -49.789093,55.344826c5.294647,-63.584969 52.332031,-112.746296 99.90744,-111.436413l0,0zm-53.824646,-63.802399c0.44928,37.970518 -8.815613,77.88987 -30.402679,104.16589c-0.319977,18.823601 -22.931213,27.845207 -11.596008,1.994408c3.504059,-10.389141 12.684753,-36.357685 6.887268,-37.481573c0.558289,13.831038 -20.431305,44.689192 -15.484406,13.151628c6.552094,-35.453953 26.238739,-65.294731 50.595825,-81.830353zm-97.265442,-44.82552c26.547852,12.442307 50.303925,48.935581 43.800232,87.907263c7.17572,14.626421 -16.970367,30.471998 -9.243347,7.613024c3.413605,-13.801801 -17.442352,-61.062756 -8.078461,-24.229531c6.424896,11.173454 2.690277,60.710126 -7.944244,32.681033c-10.979279,-32.549548 -22.420166,-67.485701 -18.534302,-103.971788l0.000122,0zm-88.074158,204.693123c51.197418,-3.948006 100.29007,52.146034 104.827942,119.520241c-10.350433,-20.960129 -27.099457,-60.577423 -38.152313,-65.01088c17.843597,28.273987 29.17099,62.817566 35.85318,98.316742c-19.62735,-44.883698 -51.285797,-76.904572 -80.389221,-110.261581c-8.354431,-13.260437 -15.180649,-28.014877 -22.139587,-42.564522l0,0zm116.695404,47.766319c-16.5755,-26.418076 -32.127716,-56.538612 -56.515656,-71.268723c24.284027,27.677185 43.316833,64.157776 51.85022,105.206223c-20.523956,-39.287537 -50.82428,-66.461349 -77.370422,-97.815201c-18.925797,-15.84848 -13.686829,-61.739792 11.947449,-42.187138c34.969727,17.157757 58.356384,60.98814 70.088409,106.064838zm-89.544739,-179.395364c45.836121,1.356136 86.923004,55.456723 87.561218,116.079408c-9.743103,-11.671074 -23.028198,-51.762451 -30.463074,-47.024643c5.886475,12.208153 26.137482,45.318916 17.800507,49.4813c-23.115845,-29.573959 -57.862305,-49.042004 -66.455994,-93.716044c-2.834351,-8.257747 -6.44577,-16.094218 -8.442657,-24.820078l0,0.000057z" fill="#000000" transform="rotate(60.574, 343.912, 232.064)"/>
 </g>
</svg>